HIERARCHY
ROOT Hips
{
	OFFSET 0.00000 0.00000 0.00000
	CHANNELS 6 Xposition Yposition Zposition Zrotation Yrotation Xrotation 
	JOINT RightUpLegDummy
	{
		OFFSET 0 0 0
		CHANNELS 3 Zrotation Yrotation Xrotation
		JOINT RightUpLeg
		{
			OFFSET -3.52197 -3.41223 0.04002
			CHANNELS 3 Zrotation Yrotation Xrotation
			JOINT RightLeg
			{
				OFFSET -1.06336 -17.58347 1.60435
				CHANNELS 3 Zrotation Yrotation Xrotation
				JOINT RightFoot
				{
					OFFSET -0.27018 -17.05419 -1.63900
					CHANNELS 3 Zrotation Yrotation Xrotation
					JOINT RightToes
					{
						OFFSET 0.00298 -1.73825 3.34613
						CHANNELS 3 Zrotation Yrotation Xrotation
						End Site
						{
							OFFSET 0.00480 -0.05416 3.85043
						}
					}
				}
			}
		}
	}
	JOINT SpineDummy
	{
		OFFSET 0 0 0
		CHANNELS 3 Zrotation Yrotation Xrotation
		JOINT Spine
		{
			OFFSET 0.00000 4.14613 0.00000
			CHANNELS 3 Zrotation Yrotation Xrotation
			JOINT Spine1
			{
				OFFSET 0.00000 10.93369 0.05002
				CHANNELS 3 Zrotation Yrotation Xrotation
				JOINT HEadDummy
				{
					OFFSET 0 0 0
					CHANNELS 3 Zrotation Yrotation Xrotation
					JOINT Head
					{
						OFFSET 0.00000 5.52901 0.00438
						CHANNELS 3 Zrotation Yrotation Xrotation
						End Site
						{
							OFFSET -0.11417 7.29012 0.98962
						}
					}
				}
				JOINT LeftShoulder1Dummy
				{
					OFFSET 0 0 0
					CHANNELS 3 Zrotation Yrotation Xrotation
					JOINT LeftShoulder1
					{
						OFFSET 3.53937 -0.14262 -0.08662
						CHANNELS 3 Zrotation Yrotation Xrotation
						JOINT LeftArm
						{
							OFFSET 4.04833 -0.00133 0.12681
							CHANNELS 3 Zrotation Yrotation Xrotation
							JOINT LeftForeArm
							{
								OFFSET 9.67557 0.03289 -0.56117
								CHANNELS 3 Zrotation Yrotation Xrotation
								JOINT LeftHand
								{
									OFFSET 10.17679 0.06873 0.40307
									CHANNELS 3 Zrotation Yrotation Xrotation
									End Site
									{
										OFFSET 6.59293 -0.21483 0.59213
									}
								}
							}
						}
					}
				}
				JOINT RightShoulderDummy
				{
					OFFSET 0 0 0
					CHANNELS 3 Zrotation Yrotation Xrotation
					JOINT RightShoulder
					{
						OFFSET -3.53937 -0.14262 -0.08660
						CHANNELS 3 Zrotation Yrotation Xrotation
						JOINT RightArm
						{
							OFFSET -4.04833 -0.00132 0.12683
							CHANNELS 3 Zrotation Yrotation Xrotation
							JOINT RightForeArm
							{
								OFFSET -9.67570 0.03289 -0.56114
								CHANNELS 3 Zrotation Yrotation Xrotation
								JOINT RightHand
								{
									OFFSET -10.17679 0.06867 0.40304
									CHANNELS 3 Zrotation Yrotation Xrotation
									End Site
									{
										OFFSET -6.54841 -0.21495 0.59212
									}
								}
							}
						}
					}
				}
			}
		}
	}
	JOINT LeftUpLegDummy
	{
		OFFSET 0 0 0
		CHANNELS 3 Zrotation Yrotation Xrotation
		JOINT LeftUpLeg
		{
			OFFSET 3.52197 -3.41223 0.04002
			CHANNELS 3 Zrotation Yrotation Xrotation
			JOINT LeftLeg
			{
				OFFSET 1.08359 -17.35354 1.60336
				CHANNELS 3 Zrotation Yrotation Xrotation
				JOINT LeftFoot
				{
					OFFSET 0.24986 -17.28405 -1.63802
					CHANNELS 3 Zrotation Yrotation Xrotation
					JOINT LeftToes
					{
						OFFSET -0.01575 -1.73822 3.34610
						CHANNELS 3 Zrotation Yrotation Xrotation
						End Site
						{
							OFFSET 0.03150 -0.01868 3.85031
						}
					}
				}
			}
		}
	}
}
MOTION
Frames: 17
Frame Time: 0.033333
15.4863 40.8922 -0.2186 165.8390 -82.5464 -167.3850 0.0000 0.0000 0.0000 -7.3773 -7.8744 1.1058 -2.2662 -1.2486 5.7421 -0.4251 0.0897 -4.1146 -0.0000 -0.0000 0.0000 0.0000 0.0000 0.0000 1.6013 1.7300 -3.4421 -2.6857 2.5870 8.4666 0.0000 0.0000 0.0000 2.9636 -7.6552 -0.3780 0.0000 0.0000 0.0000 0.1239 2.9957 0.1393 7.8370 -13.1219 -35.5937 -7.6386 5.3568 34.9872 1.5813 -5.1330 -0.0971 0.0000 0.0000 0.0000 -1.5004 -0.9288 0.2111 -6.6993 13.8242 -27.9062 5.3282 -5.5259 24.0993 -2.8216 0.4328 -0.1156 0.0000 0.0000 0.0000 5.7459 7.7148 4.0613 1.1802 6.7646 -2.8536 -0.2829 0.0703 2.5608 0.0000 0.0000 -0.0000
15.4891 40.8947 -0.1389 165.3820 -82.4683 -166.8870 0.0000 0.0000 0.0000 -7.5971 -7.9663 1.0627 -2.2679 -0.8818 5.6032 -0.3247 0.0805 -3.8200 -0.0000 -0.0000 0.0000 0.0000 0.0000 0.0000 1.5685 1.7598 -3.4081 -2.5993 2.6051 8.4422 0.0000 0.0000 0.0000 2.8881 -7.7004 -0.3965 0.0000 0.0000 0.0000 -0.1537 2.9691 0.1455 8.1407 -13.1966 -35.7882 -7.5795 5.3583 34.9346 1.5566 -5.0075 -0.0964 0.0000 0.0000 0.0000 -1.5550 -0.9271 0.2105 -6.6726 13.9121 -28.1675 5.1849 -5.5413 24.2265 -2.7557 0.6577 -0.1161 0.0000 0.0000 0.0000 5.5824 7.6949 3.9256 1.0950 6.8621 -2.6594 -0.2319 0.0607 2.3444 0.0000 0.0000 -0.0000
15.5042 40.9004 -0.0066 165.1010 -82.0820 -166.3880 0.0000 0.0000 0.0000 -7.9483 -8.1179 0.6724 -2.2290 -0.0371 5.5174 0.0196 0.0519 -3.3693 -0.0000 -0.0000 0.0000 0.0000 0.0000 0.0000 1.6771 1.9115 -3.4842 -2.7703 2.7941 8.3557 0.0000 0.0000 0.0000 2.7242 -7.7357 -0.3049 0.0000 0.0000 0.0000 -0.6765 2.8391 0.1657 8.5543 -13.3234 -36.0886 -7.4923 5.3616 34.7928 1.7700 -4.7423 -0.1110 0.0000 0.0000 0.0000 -1.4369 -0.9545 0.2134 -6.3875 13.9767 -28.7622 4.8595 -5.5828 23.5501 -2.7107 0.5811 -0.1164 0.0000 0.0000 0.0000 5.2545 7.6207 3.5366 1.0284 7.4031 -2.2538 -0.1277 0.0431 1.9853 0.0000 0.0000 -0.0000
15.5419 40.9092 0.1612 165.7740 -81.2685 -166.6140 0.0000 0.0000 0.0000 -8.2758 -8.2458 -0.1949 -2.1125 1.1799 5.5675 0.5991 0.0023 -2.8484 -0.0000 -0.0000 0.0000 0.0000 0.0000 0.0000 2.0775 2.1888 -3.5963 -3.4168 3.1862 8.1141 0.0000 0.0000 0.0000 2.6803 -7.5949 -0.0985 0.0000 0.0000 0.0000 -1.2966 2.6622 0.1936 8.7445 -13.4094 -35.9760 -7.6132 5.3560 35.0517 2.4288 -4.5149 -0.1610 0.0000 0.0000 0.0000 -0.9786 -0.8727 0.2345 -5.5989 13.7278 -29.3758 4.4128 -4.1540 22.0378 -2.9625 0.0652 -0.1190 0.0000 0.0000 0.0000 4.8310 7.4891 2.8952 1.0707 8.4980 -1.7248 0.0732 0.0151 1.5948 0.0000 0.0000 -0.0000
15.6121 40.9147 0.3720 167.5240 -80.0401 -167.8800 0.0000 0.0000 0.0000 -8.4785 -8.1738 -1.3597 -1.9825 2.5490 5.7435 1.1741 -0.0560 -2.1780 -0.0000 -0.0000 0.0000 0.0000 0.0000 0.0000 2.6210 2.4982 -3.4885 -4.2717 3.6338 7.8260 0.0000 0.0000 0.0000 2.7907 -7.1236 0.0619 0.0000 0.0000 0.0000 -2.0176 2.5519 0.2175 8.5539 -13.3379 -35.2181 -8.0092 5.3303 36.2681 3.4227 -4.5962 -0.2419 0.0000 0.0000 0.0000 -0.3084 -0.5917 0.2819 -4.2789 13.2014 -29.4737 4.0351 -0.5273 20.9634 -3.4661 -0.1489 -0.1340 0.0000 0.0000 0.0000 4.4658 7.4550 2.1568 1.1623 9.8994 -0.9987 0.3315 -0.0185 1.1206 0.0000 0.0000 -0.0000
15.7191 40.9095 0.6136 169.3590 -78.4581 -169.4320 0.0000 0.0000 0.0000 -8.6112 -7.7160 -2.6250 -1.9488 3.7919 6.1773 1.6284 -0.1118 -1.4816 -0.0000 -0.0000 0.0000 0.0000 0.0000 0.0000 2.7704 2.7445 -3.0697 -4.8680 3.9724 7.7407 0.0000 0.0000 0.0000 2.8122 -6.2783 -0.0210 0.0000 0.0000 0.0000 -2.8651 2.4816 0.2404 7.9456 -12.9780 -34.0434 -8.4984 5.2881 38.2413 4.3078 -5.0620 -0.3265 0.0000 0.0000 0.0000 0.5101 -0.1940 0.3495 -2.7219 12.7887 -28.8914 3.9894 4.2661 21.3348 -3.8932 0.4373 -0.1660 0.0000 0.0000 0.0000 4.1595 7.5840 1.5405 1.2576 11.4663 -0.0739 0.6067 -0.0523 0.5670 0.0000 0.0000 -0.0000
15.8556 40.8894 0.8799 170.4410 -76.6219 -170.4360 0.0000 0.0000 0.0000 -8.8567 -6.7823 -3.9645 -1.9671 4.7436 6.9679 2.1383 -0.1735 -0.9249 -0.0000 -0.0000 0.0000 0.0000 0.0000 0.0000 2.1880 2.8721 -2.5651 -4.9672 4.1269 8.0608 0.0000 0.0000 0.0000 2.6588 -5.1237 -0.4843 0.0000 0.0000 0.0000 -3.8171 2.3266 0.2774 6.9613 -12.2275 -32.5196 -9.0396 5.3968 40.0202 4.8238 -5.6241 -0.3892 0.0000 0.0000 0.0000 1.6101 0.1975 0.4340 -1.0905 12.9286 -25.9661 3.9081 9.9214 20.7408 -4.2961 1.4272 -0.2140 0.0000 0.0000 0.0000 3.7327 7.6743 1.0804 1.4543 13.2790 0.9392 0.8531 -0.0808 0.0024 0.0000 0.0000 -0.0000
16.0174 40.8542 1.1789 170.8660 -74.6233 -170.8310 0.0000 0.0000 0.0000 -9.3516 -5.3328 -5.4666 -1.8652 5.3332 8.0074 2.7199 -0.2469 -0.3721 -0.0000 -0.0000 0.0000 0.0000 0.0000 0.0000 1.0016 2.8432 -2.2111 -4.7191 4.0862 8.8133 0.0000 0.0000 0.0000 2.5796 -3.7054 -1.2980 0.0000 0.0000 0.0000 -4.8010 2.0706 0.3315 5.6033 -11.1326 -30.3375 -9.7842 4.2597 41.1277 5.3132 -5.9338 -0.4449 0.0000 0.0000 0.0000 2.9695 0.5345 0.5310 0.9905 13.8413 -17.6920 1.9212 16.2915 14.5220 -4.9572 2.2228 -0.2778 0.0000 0.0000 0.0000 3.0795 7.5444 0.6261 1.8490 15.3296 1.9537 0.9620 -0.0944 -0.5256 0.0000 0.0000 -0.0000
16.2143 40.8090 1.5155 171.2040 -72.4827 -171.0880 0.0000 0.0000 0.0000 -10.0274 -3.3458 -7.1978 -1.5992 5.4661 9.0952 3.0356 -0.3113 0.4569 -0.0000 -0.0000 0.0000 0.0000 0.0000 0.0000 -0.4766 2.6735 -1.9552 -4.3850 3.8931 9.8139 0.0000 0.0000 0.0000 2.7102 -2.0285 -2.1956 0.0000 0.0000 0.0000 -5.7836 1.8162 0.3897 3.8738 -10.0372 -27.5979 -10.7510 0.9169 41.9799 6.1192 -6.0475 -0.5241 0.0000 0.0000 0.0000 4.2692 0.8368 0.6287 3.5730 15.3488 -11.4428 -0.1145 22.8995 9.9387 -5.5495 2.9002 -0.3417 0.0000 0.0000 0.0000 2.3375 7.3249 0.0103 2.4037 17.5087 3.0467 0.9619 -0.0973 -1.0195 0.0000 0.0000 -0.0000
16.4487 40.7671 1.8886 172.0260 -70.1600 -171.7520 0.0000 0.0000 0.0000 -10.6467 -0.9285 -9.1191 -1.2782 5.1759 10.0632 3.0119 -0.3588 1.6414 -0.0000 -0.0000 0.0000 0.0000 0.0000 0.0000 -1.8879 2.4859 -1.6906 -4.0889 3.6843 10.8543 0.0000 0.0000 0.0000 2.8720 -0.1542 -2.8832 0.0000 0.0000 0.0000 -6.8640 1.5826 0.4518 1.9120 -9.5578 -23.9609 -11.5827 -3.0788 41.8311 6.7618 -6.3801 -0.6012 0.0000 0.0000 0.0000 5.2752 1.1408 0.7193 6.5674 17.1999 -10.2605 -0.3181 29.3704 11.0929 -5.0717 4.0198 -0.3520 0.0000 0.0000 0.0000 1.7547 7.2698 -0.8227 3.0652 19.8171 4.3189 1.0920 -0.1105 -1.4701 0.0000 0.0000 -0.0000
16.6934 40.7497 2.2978 173.4720 -67.6090 -172.9260 0.0000 0.0000 0.0000 -10.9650 1.3043 -11.0427 -0.9595 5.1735 10.5850 3.0821 -0.4374 3.2579 -0.0000 -0.0000 0.0000 0.0000 0.0000 0.0000 -2.9160 2.4136 -1.5865 -3.8843 3.6195 11.9672 0.0000 0.0000 0.0000 2.8522 1.7353 -3.2100 0.0000 0.0000 0.0000 -8.1642 1.2442 0.5425 -0.0537 -10.2006 -17.6449 -11.4862 -6.7872 38.3116 6.4340 -7.1443 -0.6065 0.0000 0.0000 0.0000 6.0470 1.4559 0.8048 9.7499 19.3518 -8.3014 -0.3475 35.3679 12.2734 -2.8397 5.8196 -0.2148 0.0000 0.0000 0.0000 1.4063 7.4069 -1.6720 3.8209 22.2776 5.4513 1.3928 -0.1357 -1.7457 0.0000 0.0000 -0.0000
16.9111 40.7647 2.7380 175.3090 -64.8358 -174.3920 0.0000 0.0000 0.0000 -10.7047 2.3041 -12.6542 -0.6727 6.5841 10.1359 3.3518 -0.5771 5.5434 -0.0000 -0.0000 0.0000 0.0000 0.0000 0.0000 -3.4327 2.4619 -1.8724 -3.7551 3.7182 13.3221 0.0000 0.0000 0.0000 2.7045 3.5026 -3.1891 0.0000 0.0000 0.0000 -9.6000 0.7187 0.6795 -1.6834 -11.9338 -10.7502 -10.6037 -9.5835 33.4549 5.2026 -8.0823 -0.5171 0.0000 0.0000 0.0000 6.6471 1.7374 0.8799 12.5035 22.0536 -5.5720 -0.4237 40.5587 13.3185 0.6566 7.9028 0.1269 0.0000 0.0000 0.0000 1.2338 7.4820 -2.2603 4.6346 24.8997 6.0660 1.5280 -0.1475 -1.7845 0.0000 0.0000 -0.0000
17.0927 40.7902 3.1735 177.0000 -61.9397 -175.7600 0.0000 0.0000 0.0000 -9.7786 1.6596 -13.7546 -0.5346 9.2175 8.7506 3.1680 -0.6601 8.1038 -0.0000 -0.0000 0.0000 0.0000 0.0000 0.0000 -3.7492 2.5357 -2.4349 -3.5647 3.8388 14.8217 0.0000 0.0000 0.0000 2.6643 5.2589 -3.0170 0.0000 0.0000 0.0000 -10.9022 0.0973 0.8431 -2.7879 -14.4204 -6.2274 -9.7678 -11.1828 30.5830 4.0095 -8.8103 -0.4070 0.0000 0.0000 0.0000 6.9777 1.9299 0.9284 14.5987 25.6470 -2.5548 -0.5465 45.2262 14.9695 4.0826 9.6308 0.5692 0.0000 0.0000 0.0000 1.1433 7.4334 -2.5607 5.4865 27.6393 6.3872 1.3880 -0.1399 -1.7327 0.0000 0.0000 -0.0000
17.2543 40.7992 3.5496 178.0330 -59.1385 -176.6870 0.0000 0.0000 0.0000 -8.7604 0.6749 -14.4455 -0.5005 10.2518 7.6338 2.0768 -0.5211 9.3520 -0.0000 -0.0000 0.0000 0.0000 0.0000 0.0000 -4.3459 2.5572 -2.9158 -3.1853 3.8358 16.0575 0.0000 0.0000 0.0000 2.7776 7.1268 -2.9010 0.0000 0.0000 0.0000 -11.8831 -0.4642 0.9949 -3.3766 -17.4254 -3.3410 -9.0558 -12.2473 28.8254 3.5166 -9.1398 -0.3576 0.0000 0.0000 0.0000 7.0174 2.0294 0.9463 16.1289 30.0515 0.3436 -0.7460 50.0480 17.4829 6.4988 10.5742 0.9271 0.0000 0.0000 0.0000 1.0241 7.5096 -2.7496 6.3694 30.2568 6.9455 1.3744 -0.1394 -1.7194 0.0000 0.0000 -0.0000
17.4034 40.7891 3.8399 178.3330 -56.6764 -177.1260 0.0000 0.0000 0.0000 -8.2873 0.5109 -14.9027 -0.4792 7.3066 8.1411 0.7407 -0.2530 7.8836 -0.0000 -0.0000 0.0000 0.0000 0.0000 0.0000 -5.2360 2.4991 -3.1516 -2.7164 3.6850 16.7754 0.0000 0.0000 0.0000 2.9079 9.0114 -2.8874 0.0000 0.0000 0.0000 -12.5365 -0.8924 1.1129 -3.4632 -20.7566 -1.2628 -8.1620 -13.3308 26.5657 3.5447 -9.1069 -0.3599 0.0000 0.0000 0.0000 6.9166 2.0481 0.9434 17.2209 34.9046 2.6022 -1.0171 55.3827 20.2420 8.0556 10.7593 1.1478 0.0000 0.0000 0.0000 0.8090 7.7775 -2.8864 7.1708 32.3654 7.7874 1.6071 -0.1541 -1.7082 0.0000 0.0000 -0.0000
17.5269 40.7714 4.0564 178.2190 -54.6214 -177.3190 0.0000 0.0000 0.0000 -7.9796 -0.1972 -15.0992 -0.7747 2.5177 10.2943 0.1120 -0.0841 4.4344 -0.0000 -0.0000 0.0000 0.0000 0.0000 0.0000 -5.9236 2.3612 -3.2810 -2.4591 3.4655 17.1163 0.0000 0.0000 0.0000 2.9221 10.6652 -2.7696 0.0000 0.0000 0.0000 -12.9173 -1.2051 1.1974 -3.2983 -24.0346 1.4393 -6.4014 -15.0536 21.9888 3.6126 -8.9622 -0.3645 0.0000 0.0000 0.0000 6.7565 1.9653 0.9213 18.0385 40.0964 3.7546 -1.3658 60.8433 22.5469 9.1872 10.6818 1.2935 0.0000 0.0000 0.0000 0.5354 8.0889 -2.8752 7.7822 33.8307 8.5803 1.6117 -0.1537 -1.7001 0.0000 0.0000 -0.0000
17.6094 40.7639 4.2145 178.0740 -52.8166 -177.5720 0.0000 0.0000 0.0000 -7.1440 -2.7519 -15.0005 -1.5719 -0.3089 13.3501 0.0009 -0.0191 1.2291 -0.0000 -0.0000 0.0000 0.0000 0.0000 0.0000 -5.9662 2.1950 -3.4458 -2.5503 3.2750 17.2798 0.0000 0.0000 0.0000 2.7376 11.9457 -2.2688 0.0000 0.0000 0.0000 -13.1076 -1.4604 1.2614 -3.1917 -26.7550 5.1608 -3.1346 -17.7657 15.0593 3.5002 -8.9603 -0.3512 0.0000 0.0000 0.0000 6.4503 1.7980 0.8782 18.8429 45.6880 3.7114 -1.8017 65.7864 24.2211 9.7016 10.7274 1.3665 0.0000 0.0000 0.0000 0.3570 8.4170 -2.6123 8.1952 35.1017 9.1256 1.3706 -0.1373 -1.7470 0.0000 0.0000 -0.0000
